<?xml version="1.0" standalone="no"?><!DOCTYPE svg PUBLIC "-//W3C//DTD SVG 1.1//EN" "http://www.w3.org/Graphics/SVG/1.1/DTD/svg11.dtd"><svg t="1535520511633" class="icon" style="" viewBox="0 0 1024 1024" version="1.1" xmlns="http://www.w3.org/2000/svg" p-id="11656" xmlns:xlink="http://www.w3.org/1999/xlink" width="48" height="48"><defs><style type="text/css"></style></defs><path d="M892.342857 1024H468.114286C204.8 1002.057143 0 782.628571 0 512c0-285.257143 226.742857-512 512-512s512 226.742857 512 512c0 131.657143-51.2 248.685714-131.657143 336.457143V1024z" fill="#F3EABD" p-id="11657"></path><path d="M51.2 497.371429c0 234.057143 212.114286 431.542857 460.8 431.542857h314.514286l14.628571-117.028572c80.457143-73.142857 131.657143-197.485714 131.657143-314.514285C972.8 263.314286 760.685714 51.2 512 51.2S51.2 263.314286 51.2 497.371429zM892.342857 1024H468.114286C204.8 1002.057143 0 782.628571 0 512c0-285.257143 226.742857-512 512-512s512 226.742857 512 512c0 131.657143-51.2 248.685714-131.657143 336.457143V1024z" fill="#CF8831" p-id="11658"></path><path d="M490.057143 782.628571H585.142857V680.228571H490.057143zM614.4 512c-14.628571 14.628571-21.942857 21.942857-29.257143 36.571429-7.314286 14.628571-7.314286 29.257143-7.314286 51.2v7.314285H490.057143v-7.314285c0-29.257143 7.314286-51.2 14.628571-73.142858 7.314286-21.942857 36.571429-51.2 87.771429-95.085714l7.314286-7.314286c14.628571-14.628571 21.942857-36.571429 21.942857-51.2 0-21.942857-7.314286-43.885714-21.942857-58.514285-14.628571-14.628571-36.571429-21.942857-58.514286-21.942857-29.257143 0-58.514286 7.314286-73.142857 29.257142-14.628571 14.628571-14.628571 43.885714-14.628572 73.142858H365.714286c0-51.2 14.628571-95.085714 51.2-131.657143 29.257143-29.257143 73.142857-43.885714 124.342857-43.885715s87.771429 14.628571 117.028571 36.571429c36.571429 29.257143 51.2 65.828571 51.2 109.714286 0 36.571429-7.314286 65.828571-29.257143 87.771428-7.314286 7.314286-29.257143 29.257143-65.828571 58.514286z" fill="#C7740D" p-id="11659"></path></svg>