<?xml version="1.0" standalone="no"?><!DOCTYPE svg PUBLIC "-//W3C//DTD SVG 1.1//EN" "http://www.w3.org/Graphics/SVG/1.1/DTD/svg11.dtd"><svg t="1527677996947" class="icon" style="" viewBox="0 0 1024 1024" version="1.1" xmlns="http://www.w3.org/2000/svg" p-id="5786" xmlns:xlink="http://www.w3.org/1999/xlink" width="200" height="200"><defs><style type="text/css"></style></defs><path d="M512 938.666667c-235.264 0-426.666667-191.402667-426.666667-426.666667s191.402667-426.666667 426.666667-426.666667 426.666667 191.402667 426.666667 426.666667-191.402667 426.666667-426.666667 426.666667M512 0C229.717333 0 0 229.717333 0 512s229.717333 512 512 512 512-229.717333 512-512-229.717333-512-512-512" fill="#5f6379" p-id="5787" data-spm-anchor-id="a313x.7781069.0.i4" class="selected"></path><path d="M496.469333 329.045333c-17.066667-17.066667-44.714667-17.066667-61.866666 0-17.066667 16.896-17.066667 44.373333 0 61.44L556.885333 512 434.517333 633.514667c-17.152 16.981333-17.152 44.458667 0 61.44a44.202667 44.202667 0 0 0 61.952 0L649.728 542.72c17.066667-16.981333 17.066667-44.458667 0-61.44L496.469333 328.96z" fill="#5F6379" p-id="5788"></path></svg>