<?xml version="1.0" standalone="no"?><!DOCTYPE svg PUBLIC "-//W3C//DTD SVG 1.1//EN" "http://www.w3.org/Graphics/SVG/1.1/DTD/svg11.dtd"><svg t="1542861497889" class="icon" style="" viewBox="0 0 1024 1024" version="1.1" xmlns="http://www.w3.org/2000/svg" p-id="6846" xmlns:xlink="http://www.w3.org/1999/xlink" width="200" height="200"><defs><style type="text/css"></style></defs><path d="M753.493333 937.386667l-464.64-115.413334a33.92 33.92 0 0 1-24.746666-41.173333L426.666667 128a33.92 33.92 0 0 1 41.173333-24.746667l333.44 82.56 123.093333 204.373334-129.706666 522.453333a33.92 33.92 0 0 1-41.173334 24.746667z" fill="#F7F7F7" p-id="6847"></path><path d="M761.813333 946.773333a42.666667 42.666667 0 0 1-10.24-1.28l-464.853333-115.413333A42.666667 42.666667 0 0 1 256 778.666667l162.133333-653.013334A42.666667 42.666667 0 0 1 469.333333 94.506667l337.28 83.84 126.72 210.346666-130.56 525.866667a42.666667 42.666667 0 0 1-41.173333 32.213333z m-6.186666-17.706666a25.386667 25.386667 0 0 0 30.933333-18.56l128-519.04-119.466667-198.4-329.6-81.92a25.386667 25.386667 0 0 0-30.933333 18.56l-162.346667 653.013333a25.386667 25.386667 0 0 0 18.56 30.933333z" fill="#C5C5C5" p-id="6848"></path><path d="M933.333333 388.906667l-126.506666-210.56-11.733334-2.986667-37.333333 150.613333a30.506667 30.506667 0 0 0 21.333333 36.906667l150.613334 37.333333z m-159.36-58.666667l30.506667-122.453333 101.973333 169.386666-122.453333-30.506666a13.653333 13.653333 0 0 1-9.813333-16.426667z" fill="#C5C5C5" p-id="6849"></path><path d="M47.786667 99.2m42.666666 0l565.973334 0q42.666667 0 42.666666 42.666667l0 756.266666q0 42.666667-42.666666 42.666667l-565.973334 0q-42.666667 0-42.666666-42.666667l0-756.266666q0-42.666667 42.666666-42.666667Z" fill="#F4F4F4" p-id="6850"></path><path d="M664.96 949.333333H81.706667a42.666667 42.666667 0 0 1-42.666667-42.666666V133.12a42.666667 42.666667 0 0 1 42.666667-42.666667h583.253333a42.666667 42.666667 0 0 1 42.666667 42.666667v773.76a42.666667 42.666667 0 0 1-42.666667 42.453333zM81.706667 107.733333a25.386667 25.386667 0 0 0-25.386667 25.386667v773.76a25.386667 25.386667 0 0 0 25.386667 25.386667h583.253333a25.386667 25.386667 0 0 0 25.386667-25.386667V133.12a25.386667 25.386667 0 0 0-25.386667-25.386667z" fill="#C5C5C5" p-id="6851"></path><path d="M483.626667 32.853333V27.733333a13.013333 13.013333 0 0 0-13.013334-13.013333h-194.56a13.013333 13.013333 0 0 0-13.013333 13.013333v5.12a13.013333 13.013333 0 0 1-13.013333 13.013334h-17.493334a13.013333 13.013333 0 0 0-13.013333 13.013333v60.8a13.013333 13.013333 0 0 0 13.013333 13.013333h281.386667a13.013333 13.013333 0 0 0 13.013333-13.013333V58.88a13.013333 13.013333 0 0 0-13.013333-13.013333h-17.493333a13.013333 13.013333 0 0 1-12.8-13.013334z" fill="#F4F4F4" p-id="6852"></path><path d="M513.92 141.226667H232.746667a21.333333 21.333333 0 0 1-21.333334-21.333334V58.88a21.333333 21.333333 0 0 1 21.333334-21.333333h17.493333a4.48 4.48 0 0 0 4.48-4.48V27.733333a21.333333 21.333333 0 0 1 21.333333-21.333333h194.346667a21.333333 21.333333 0 0 1 21.333333 21.333333v5.12a4.48 4.48 0 0 0 4.48 4.48h17.493334a21.333333 21.333333 0 0 1 21.333333 21.333334v61.013333a21.333333 21.333333 0 0 1-21.12 21.546667zM232.746667 54.4a4.48 4.48 0 0 0-4.48 4.48v60.8a4.48 4.48 0 0 0 4.48 4.48h281.173333a4.48 4.48 0 0 0 4.48-4.48V58.88a4.48 4.48 0 0 0-4.48-4.48h-17.493333a21.333333 21.333333 0 0 1-21.333334-21.333333V27.733333a4.48 4.48 0 0 0-4.48-4.48h-194.56a4.48 4.48 0 0 0-4.48 4.48v5.12a21.333333 21.333333 0 0 1-21.333333 21.333334z" fill="#C5C5C5" p-id="6853"></path><path d="M114.56 178.773333h517.546667v682.666667H114.56z" fill="#FFFFFF" p-id="6854"></path><path d="M182.613333 243.2h381.44v17.066667H182.613333zM182.613333 323.413333h381.44v17.066667H182.613333zM182.613333 403.413333h381.44v17.066667H182.613333zM182.613333 483.626667h275.2v17.066666H182.613333zM182.613333 563.84h275.2v17.066667H182.613333z" fill="#C5C5C5" p-id="6855"></path><path d="M681.716182 796.43875m-178.468691 13.607092a178.986667 178.986667 0 1 0 356.937383-27.214184 178.986667 178.986667 0 1 0-356.937383 27.214184Z" fill="#F7F7F7" p-id="6856"></path><path d="M681.386667 983.68a187.733333 187.733333 0 1 1 14.506666 0z m0-357.973333h-13.226667a170.666667 170.666667 0 1 0 183.04 157.013333 170.666667 170.666667 0 0 0-170.666667-157.44zM858.368 928.298667l22.101333-25.728 104.256 89.472-22.101333 25.749333z" fill="#C5C5C5" p-id="6857"></path></svg>